<mxfile host="app.diagrams.net" modified="2022-08-02T18:49:40.982Z" agent="5.0 (Windows NT 10.0; Win64; x64) AppleWebKit/537.36 (KHTML, like Gecko) Chrome/103.0.0.0 Safari/537.36" etag="d6fY6UThV2sL_qE3-6ur" version="20.2.2" type="github">
  <diagram name="Page-1" id="fbcf5db9-b524-4cd4-e4f3-379dc89c3999">
    <mxGraphModel dx="2066" dy="964" grid="1" gridSize="10" guides="1" tooltips="1" connect="1" arrows="1" fold="1" page="1" pageScale="1" pageWidth="850" pageHeight="1100" background="#F1FAEE" math="0" shadow="0">
      <root>
        <mxCell id="0" />
        <mxCell id="1" parent="0" />
        <mxCell id="2a0f93b5c73ef8e7-1" value="" style="line;strokeWidth=10;direction=south;html=1;fillColor=none;fontSize=13;fontColor=#1D3557;align=center;strokeColor=#457B9D;labelBackgroundColor=#F1FAEE;" parent="1" vertex="1">
          <mxGeometry x="360" y="70" width="10" height="990" as="geometry" />
        </mxCell>
        <mxCell id="4NYP6X48SP8oN8qisQkF-20" style="edgeStyle=orthogonalEdgeStyle;rounded=0;orthogonalLoop=1;jettySize=auto;html=1;fontColor=#1D3557;strokeColor=#b85450;fillColor=#f8cecc;strokeWidth=4;" edge="1" parent="1" source="2a0f93b5c73ef8e7-2" target="4NYP6X48SP8oN8qisQkF-21">
          <mxGeometry relative="1" as="geometry">
            <mxPoint x="80" y="177.5" as="targetPoint" />
          </mxGeometry>
        </mxCell>
        <mxCell id="2a0f93b5c73ef8e7-2" value="" style="rounded=1;whiteSpace=wrap;html=1;strokeColor=none;strokeWidth=1;fillColor=#A8DADC;fontSize=13;fontColor=#1D3557;align=center;gradientDirection=east;verticalAlign=top;shadow=1;" parent="1" vertex="1">
          <mxGeometry x="170" y="135" width="220" height="85" as="geometry" />
        </mxCell>
        <mxCell id="2a0f93b5c73ef8e7-3" value="1" style="text;html=1;strokeColor=none;fillColor=none;align=center;verticalAlign=middle;whiteSpace=wrap;fontSize=30;fontColor=#1D3557;" parent="1" vertex="1">
          <mxGeometry x="180" y="168" width="40" height="20" as="geometry" />
        </mxCell>
        <mxCell id="4NYP6X48SP8oN8qisQkF-19" style="edgeStyle=orthogonalEdgeStyle;rounded=0;orthogonalLoop=1;jettySize=auto;html=1;fontColor=#1D3557;strokeColor=#b85450;fillColor=#f8cecc;entryX=0.5;entryY=0;entryDx=0;entryDy=0;strokeWidth=4;" edge="1" parent="1" source="2a0f93b5c73ef8e7-4" target="4NYP6X48SP8oN8qisQkF-21">
          <mxGeometry relative="1" as="geometry">
            <mxPoint x="100" y="290" as="targetPoint" />
            <Array as="points">
              <mxPoint x="60" y="293" />
              <mxPoint x="60" y="532" />
            </Array>
          </mxGeometry>
        </mxCell>
        <mxCell id="2a0f93b5c73ef8e7-4" value="" style="rounded=1;whiteSpace=wrap;html=1;strokeColor=none;strokeWidth=1;fillColor=#A8DADC;fontSize=13;fontColor=#1D3557;align=center;gradientDirection=east;verticalAlign=top;shadow=1;" parent="1" vertex="1">
          <mxGeometry x="340" y="250" width="220" height="85" as="geometry" />
        </mxCell>
        <mxCell id="2a0f93b5c73ef8e7-5" value="2" style="text;html=1;strokeColor=none;fillColor=none;align=center;verticalAlign=middle;whiteSpace=wrap;fontSize=30;fontColor=#1D3557;" parent="1" vertex="1">
          <mxGeometry x="350" y="283" width="40" height="20" as="geometry" />
        </mxCell>
        <mxCell id="4NYP6X48SP8oN8qisQkF-17" style="edgeStyle=orthogonalEdgeStyle;rounded=0;orthogonalLoop=1;jettySize=auto;html=1;fontColor=#1D3557;strokeColor=#b85450;fillColor=#f8cecc;entryX=0.5;entryY=0;entryDx=0;entryDy=0;strokeWidth=4;" edge="1" parent="1" source="2a0f93b5c73ef8e7-6" target="4NYP6X48SP8oN8qisQkF-21">
          <mxGeometry relative="1" as="geometry">
            <mxPoint x="80" y="402.5" as="targetPoint" />
          </mxGeometry>
        </mxCell>
        <mxCell id="2a0f93b5c73ef8e7-6" value="" style="rounded=1;whiteSpace=wrap;html=1;strokeColor=none;strokeWidth=1;fillColor=#A8DADC;fontSize=13;fontColor=#1D3557;align=center;gradientDirection=east;verticalAlign=top;shadow=1;" parent="1" vertex="1">
          <mxGeometry x="170" y="360" width="220" height="85" as="geometry" />
        </mxCell>
        <mxCell id="2a0f93b5c73ef8e7-7" value="3" style="text;html=1;strokeColor=none;fillColor=none;align=center;verticalAlign=middle;whiteSpace=wrap;fontSize=30;fontColor=#1D3557;" parent="1" vertex="1">
          <mxGeometry x="180" y="393" width="40" height="20" as="geometry" />
        </mxCell>
        <mxCell id="4NYP6X48SP8oN8qisQkF-16" style="edgeStyle=orthogonalEdgeStyle;rounded=0;orthogonalLoop=1;jettySize=auto;html=1;fontColor=#1D3557;strokeColor=#b85450;fillColor=#f8cecc;entryX=0.5;entryY=0;entryDx=0;entryDy=0;strokeWidth=4;" edge="1" parent="1" source="2a0f93b5c73ef8e7-8" target="4NYP6X48SP8oN8qisQkF-21">
          <mxGeometry relative="1" as="geometry">
            <mxPoint x="80" y="517.5" as="targetPoint" />
            <Array as="points">
              <mxPoint x="240" y="532" />
              <mxPoint x="240" y="532" />
            </Array>
          </mxGeometry>
        </mxCell>
        <mxCell id="2a0f93b5c73ef8e7-8" value="" style="rounded=1;whiteSpace=wrap;html=1;strokeColor=none;strokeWidth=1;fillColor=#A8DADC;fontSize=13;fontColor=#1D3557;align=center;gradientDirection=east;verticalAlign=top;shadow=1;" parent="1" vertex="1">
          <mxGeometry x="340" y="475" width="220" height="85" as="geometry" />
        </mxCell>
        <mxCell id="2a0f93b5c73ef8e7-9" value="4" style="text;html=1;strokeColor=none;fillColor=none;align=center;verticalAlign=middle;whiteSpace=wrap;fontSize=30;fontColor=#1D3557;" parent="1" vertex="1">
          <mxGeometry x="350" y="508" width="40" height="20" as="geometry" />
        </mxCell>
        <mxCell id="2a0f93b5c73ef8e7-10" value="" style="rounded=1;whiteSpace=wrap;html=1;strokeColor=none;strokeWidth=1;fillColor=#A8DADC;fontSize=13;fontColor=#1D3557;align=center;gradientDirection=east;verticalAlign=top;shadow=1;" parent="1" vertex="1">
          <mxGeometry x="170" y="590" width="220" height="85" as="geometry" />
        </mxCell>
        <mxCell id="4NYP6X48SP8oN8qisQkF-15" style="edgeStyle=orthogonalEdgeStyle;rounded=0;orthogonalLoop=1;jettySize=auto;html=1;fontColor=#1D3557;strokeColor=#b85450;fillColor=#f8cecc;entryX=0.5;entryY=0;entryDx=0;entryDy=0;strokeWidth=4;" edge="1" parent="1" source="2a0f93b5c73ef8e7-11" target="4NYP6X48SP8oN8qisQkF-21">
          <mxGeometry relative="1" as="geometry">
            <mxPoint x="80" y="633" as="targetPoint" />
            <Array as="points">
              <mxPoint x="60" y="633" />
              <mxPoint x="60" y="532" />
            </Array>
          </mxGeometry>
        </mxCell>
        <mxCell id="2a0f93b5c73ef8e7-11" value="5" style="text;html=1;strokeColor=none;fillColor=none;align=center;verticalAlign=middle;whiteSpace=wrap;fontSize=30;fontColor=#1D3557;" parent="1" vertex="1">
          <mxGeometry x="180" y="623" width="40" height="20" as="geometry" />
        </mxCell>
        <mxCell id="2a0f93b5c73ef8e7-12" value="" style="rounded=1;whiteSpace=wrap;html=1;strokeColor=none;strokeWidth=1;fillColor=#A8DADC;fontSize=13;fontColor=#1D3557;align=center;gradientDirection=east;verticalAlign=top;shadow=1;" parent="1" vertex="1">
          <mxGeometry x="340" y="705" width="220" height="85" as="geometry" />
        </mxCell>
        <mxCell id="4NYP6X48SP8oN8qisQkF-14" style="edgeStyle=orthogonalEdgeStyle;rounded=0;orthogonalLoop=1;jettySize=auto;html=1;fontColor=#1D3557;strokeColor=#b85450;fillColor=#f8cecc;entryX=0.5;entryY=0;entryDx=0;entryDy=0;strokeWidth=4;" edge="1" parent="1" source="2a0f93b5c73ef8e7-13" target="4NYP6X48SP8oN8qisQkF-21">
          <mxGeometry relative="1" as="geometry">
            <mxPoint x="80" y="748" as="targetPoint" />
            <Array as="points">
              <mxPoint x="60" y="748" />
              <mxPoint x="60" y="532" />
            </Array>
          </mxGeometry>
        </mxCell>
        <mxCell id="2a0f93b5c73ef8e7-13" value="6" style="text;html=1;strokeColor=none;fillColor=none;align=center;verticalAlign=middle;whiteSpace=wrap;fontSize=30;fontColor=#1D3557;" parent="1" vertex="1">
          <mxGeometry x="350" y="738" width="40" height="20" as="geometry" />
        </mxCell>
        <mxCell id="4NYP6X48SP8oN8qisQkF-13" style="edgeStyle=orthogonalEdgeStyle;rounded=0;orthogonalLoop=1;jettySize=auto;html=1;fontColor=#1D3557;strokeColor=#b85450;fillColor=#f8cecc;entryX=0.5;entryY=0;entryDx=0;entryDy=0;strokeWidth=4;" edge="1" parent="1" source="2a0f93b5c73ef8e7-14" target="4NYP6X48SP8oN8qisQkF-21">
          <mxGeometry relative="1" as="geometry">
            <mxPoint x="80" y="872.5" as="targetPoint" />
            <Array as="points">
              <mxPoint x="60" y="873" />
              <mxPoint x="60" y="532" />
            </Array>
          </mxGeometry>
        </mxCell>
        <mxCell id="2a0f93b5c73ef8e7-14" value="" style="rounded=1;whiteSpace=wrap;html=1;strokeColor=none;strokeWidth=1;fillColor=#A8DADC;fontSize=13;fontColor=#1D3557;align=center;gradientDirection=east;verticalAlign=top;shadow=1;" parent="1" vertex="1">
          <mxGeometry x="180" y="830" width="210" height="85" as="geometry" />
        </mxCell>
        <mxCell id="2a0f93b5c73ef8e7-15" value="7" style="text;html=1;strokeColor=none;fillColor=none;align=center;verticalAlign=middle;whiteSpace=wrap;fontSize=30;fontColor=#1D3557;" parent="1" vertex="1">
          <mxGeometry x="180" y="863" width="40" height="20" as="geometry" />
        </mxCell>
        <mxCell id="4NYP6X48SP8oN8qisQkF-29" style="edgeStyle=orthogonalEdgeStyle;rounded=0;orthogonalLoop=1;jettySize=auto;html=1;labelBackgroundColor=#FF0000;fontFamily=Helvetica;fontSize=40;fontColor=#000000;strokeColor=#b85450;strokeWidth=4;fillColor=#f8cecc;" edge="1" parent="1" source="2a0f93b5c73ef8e7-18">
          <mxGeometry relative="1" as="geometry">
            <mxPoint x="740" y="430" as="targetPoint" />
          </mxGeometry>
        </mxCell>
        <mxCell id="2a0f93b5c73ef8e7-18" value="&lt;h1 style=&quot;font-size: 25px;&quot;&gt;Version Control&amp;nbsp;&lt;/h1&gt;" style="text;html=1;spacing=5;spacingTop=-20;whiteSpace=wrap;overflow=hidden;strokeWidth=4;fontSize=25;align=center;perimeterSpacing=0;verticalAlign=middle;labelBackgroundColor=none;labelBorderColor=none;fontColor=#1D3557;" parent="1" vertex="1">
          <mxGeometry x="210" y="143" width="160" height="77" as="geometry" />
        </mxCell>
        <mxCell id="2a0f93b5c73ef8e7-19" value="&lt;h1 style=&quot;font-size: 25px;&quot;&gt;Build&lt;/h1&gt;" style="text;html=1;spacing=5;spacingTop=-20;whiteSpace=wrap;overflow=hidden;strokeColor=none;strokeWidth=4;fillColor=none;fontSize=25;fontColor=#1D3557;align=center;verticalAlign=middle;" parent="1" vertex="1">
          <mxGeometry x="390" y="270" width="160" height="77" as="geometry" />
        </mxCell>
        <mxCell id="4NYP6X48SP8oN8qisQkF-25" style="edgeStyle=orthogonalEdgeStyle;rounded=0;orthogonalLoop=1;jettySize=auto;html=1;entryX=0;entryY=0.5;entryDx=0;entryDy=0;labelBackgroundColor=#FF0000;fontFamily=Helvetica;fontSize=40;fontColor=#000000;strokeColor=#b85450;strokeWidth=4;fillColor=#f8cecc;" edge="1" parent="1" source="2a0f93b5c73ef8e7-20" target="4NYP6X48SP8oN8qisQkF-24">
          <mxGeometry relative="1" as="geometry" />
        </mxCell>
        <mxCell id="2a0f93b5c73ef8e7-20" value="&lt;h1 style=&quot;font-size: 25px;&quot;&gt;Unit Test&lt;/h1&gt;" style="text;html=1;spacing=5;spacingTop=-20;whiteSpace=wrap;overflow=hidden;strokeColor=none;strokeWidth=4;fillColor=none;fontSize=25;fontColor=#1D3557;align=center;verticalAlign=middle;" parent="1" vertex="1">
          <mxGeometry x="220" y="370" width="160" height="77" as="geometry" />
        </mxCell>
        <mxCell id="4NYP6X48SP8oN8qisQkF-26" style="edgeStyle=orthogonalEdgeStyle;rounded=0;orthogonalLoop=1;jettySize=auto;html=1;entryX=0.5;entryY=1;entryDx=0;entryDy=0;labelBackgroundColor=#FF0000;fontFamily=Helvetica;fontSize=40;fontColor=#000000;strokeColor=#b85450;strokeWidth=4;fillColor=#f8cecc;" edge="1" parent="1" source="2a0f93b5c73ef8e7-21" target="4NYP6X48SP8oN8qisQkF-24">
          <mxGeometry relative="1" as="geometry" />
        </mxCell>
        <mxCell id="2a0f93b5c73ef8e7-21" value="&lt;h1 style=&quot;font-size: 25px;&quot;&gt;Deploy to Test&lt;/h1&gt;" style="text;html=1;spacing=5;spacingTop=-20;whiteSpace=wrap;overflow=hidden;strokeColor=none;strokeWidth=4;fillColor=none;fontSize=25;fontColor=#1D3557;align=center;verticalAlign=middle;" parent="1" vertex="1">
          <mxGeometry x="390" y="484.88" width="160" height="77" as="geometry" />
        </mxCell>
        <mxCell id="4NYP6X48SP8oN8qisQkF-27" style="edgeStyle=orthogonalEdgeStyle;rounded=0;orthogonalLoop=1;jettySize=auto;html=1;entryX=1;entryY=0.5;entryDx=0;entryDy=0;labelBackgroundColor=#FF0000;fontFamily=Helvetica;fontSize=40;fontColor=#000000;strokeColor=#b85450;strokeWidth=4;fillColor=#f8cecc;" edge="1" parent="1" source="2a0f93b5c73ef8e7-22" target="4NYP6X48SP8oN8qisQkF-24">
          <mxGeometry relative="1" as="geometry" />
        </mxCell>
        <mxCell id="2a0f93b5c73ef8e7-22" value="&lt;h1 style=&quot;font-size: 25px;&quot;&gt;Auto Test&lt;/h1&gt;" style="text;html=1;spacing=5;spacingTop=-20;whiteSpace=wrap;overflow=hidden;strokeColor=none;strokeWidth=4;fillColor=none;fontSize=25;fontColor=#1D3557;align=center;verticalAlign=middle;" parent="1" vertex="1">
          <mxGeometry x="220" y="600" width="160" height="77" as="geometry" />
        </mxCell>
        <mxCell id="2a0f93b5c73ef8e7-23" value="&lt;h1 style=&quot;font-size: 25px;&quot;&gt;Deploy to Production&lt;/h1&gt;" style="text;html=1;spacing=5;spacingTop=-20;whiteSpace=wrap;overflow=hidden;strokeColor=none;strokeWidth=4;fillColor=none;fontSize=25;fontColor=#1D3557;align=center;verticalAlign=middle;" parent="1" vertex="1">
          <mxGeometry x="390" y="713" width="160" height="77" as="geometry" />
        </mxCell>
        <mxCell id="4NYP6X48SP8oN8qisQkF-28" style="edgeStyle=orthogonalEdgeStyle;rounded=0;orthogonalLoop=1;jettySize=auto;html=1;labelBackgroundColor=#FF0000;fontFamily=Helvetica;fontSize=40;fontColor=#000000;strokeColor=#b85450;strokeWidth=4;fillColor=#f8cecc;entryX=1;entryY=0.5;entryDx=0;entryDy=0;" edge="1" parent="1" source="2a0f93b5c73ef8e7-24" target="4NYP6X48SP8oN8qisQkF-24">
          <mxGeometry relative="1" as="geometry">
            <mxPoint x="740" y="630" as="targetPoint" />
          </mxGeometry>
        </mxCell>
        <mxCell id="2a0f93b5c73ef8e7-24" value="&lt;h1 style=&quot;font-size: 25px;&quot;&gt;Measure&lt;/h1&gt;&lt;div&gt;&lt;font style=&quot;font-size: 25px;&quot;&gt;&lt;b&gt;Validate&lt;/b&gt;&lt;/font&gt;&lt;/div&gt;" style="text;html=1;spacing=5;spacingTop=-20;whiteSpace=wrap;overflow=hidden;strokeColor=none;strokeWidth=4;fillColor=none;fontSize=25;fontColor=#1D3557;align=center;verticalAlign=middle;" parent="1" vertex="1">
          <mxGeometry x="220" y="834" width="160" height="77" as="geometry" />
        </mxCell>
        <mxCell id="4NYP6X48SP8oN8qisQkF-23" style="edgeStyle=orthogonalEdgeStyle;rounded=0;orthogonalLoop=1;jettySize=auto;html=1;entryX=0;entryY=0.5;entryDx=0;entryDy=0;entryPerimeter=0;fontFamily=Helvetica;fontSize=30;fontColor=#FF0000;strokeColor=#b85450;fillColor=#f8cecc;exitX=0;exitY=0.5;exitDx=0;exitDy=0;labelBackgroundColor=#FF0000;strokeWidth=3;" edge="1" parent="1" source="4NYP6X48SP8oN8qisQkF-21" target="2a0f93b5c73ef8e7-1">
          <mxGeometry relative="1" as="geometry">
            <Array as="points">
              <mxPoint x="-80" y="50" />
              <mxPoint x="365" y="50" />
            </Array>
          </mxGeometry>
        </mxCell>
        <mxCell id="4NYP6X48SP8oN8qisQkF-21" value="Production Feedback&amp;nbsp;" style="rounded=1;whiteSpace=wrap;html=1;fontColor=#000000;strokeColor=#457B9D;fillColor=#A8DADC;fontSize=30;fontFamily=Helvetica;rotation=90;" vertex="1" parent="1">
          <mxGeometry x="-466.87" y="501.88" width="773.75" height="60" as="geometry" />
        </mxCell>
        <mxCell id="4NYP6X48SP8oN8qisQkF-24" value="QA" style="rounded=1;whiteSpace=wrap;html=1;fontFamily=Helvetica;fontSize=40;fontColor=#000000;strokeColor=#457B9D;fillColor=#A8DADC;rotation=90;" vertex="1" parent="1">
          <mxGeometry x="650" y="462.13" width="180" height="122.5" as="geometry" />
        </mxCell>
      </root>
    </mxGraphModel>
  </diagram>
</mxfile>
